# xmcd CD database file
#
# Track frame offsets:
#	150
#	11754
#	26816
#	45893
#	63370
#	77293
#	91306
#	103624
#	116058
#	135116
#	146215
#	159970
#
# Disc length: 2324 seconds
#
# Revision: 0
# Processed by: cddbd v1.5.1PL2 Copyright (c) Steve Scherf et al.
# Submitted via: CDex 1.51
#
DISCID=8b09120c
DTITLE=JOHN McNICHOLL - WHAT'S A GUY GOTTA DO
DYEAR=1900
DGENRE=Country
TTITLE0=FALLING IN LOVE (THE BIG ONE )
TTITLE1=WHEREVER YOU ARE
TTITLE2=SWEET SIXTEEN
TTITLE3=PALAY THE JUKEBOX
TTITLE4=WHO DID THIS TO YOU
TTITLE5=MY WILD IRISH ROSE
TTITLE6=SHADOW OF THE PINES
TTITLE7=WALK THROUGH THIS WORLD WITH ME
TTITLE8=LIMERICK YOU'RE A LADY
TTITLE9=LIMERICK A GUY GOTTA DO
TTITLE10=MY OLD HOMETOWN ON THE FOYLE
TTITLE11=BRIGHT SILVERY LIGHT OF THE MOON
EXTD=
EXTT0=
EXTT1=
EXTT2=
EXTT3=
EXTT4=
EXTT5=
EXTT6=
EXTT7=
EXTT8=
EXTT9=
EXTT10=
EXTT11=
PLAYORDER=
